<svg xmlns="http://www.w3.org/2000/svg" width="960" height="404" viewBox="0 0 960 404" role="img" aria-labelledby="title desc"><title id="title">Illustrative learning cycle: recall, execute, evaluate, store, adapt and reuse.</title><desc id="desc">Illustrative Ruflo artwork. Motion is decorative; no live metrics. Supports reduced motion.</desc><defs><linearGradient id="bg" x2="1" y2="1"><stop stop-color="#181821"/><stop offset="1" stop-color="#101018"/></linearGradient><linearGradient id="neon"><stop stop-color="#27eaff"/><stop offset=".55" stop-color="#ffe32e"/><stop offset="1" stop-color="#ff168f"/></linearGradient><filter id="glow" x="-60%" y="-100%" width="220%" height="300%"><feGaussianBlur stdDeviation="3"/><feMerge><feMergeNode/><feMergeNode in="SourceGraphic"/></feMerge></filter><filter id="soft" x="-20%" y="-80%" width="140%" height="260%"><feGaussianBlur stdDeviation="1.5"/><feMerge><feMergeNode/><feMergeNode in="SourceGraphic"/></feMerge></filter><pattern id="grid" width="96" height="48" patternUnits="userSpaceOnUse"><path d="M0 0H96M0 24H96M48 0V24M0 24V48M96 24V48" fill="none" stroke="#8d6683" stroke-opacity=".04"/></pattern></defs><style>text{font-family:Arial,Helvetica,sans-serif}.mono{font-family:monospace}.flow{stroke-dasharray:12 40;animation:flow 5s linear infinite;filter:url(#glow)}.tube{filter:url(#glow);animation:flicker 13s linear infinite}.tube2{filter:url(#glow);animation:flicker 17s 3s linear infinite}.gold{fill:#ffe64c;filter:url(#soft)}@keyframes flicker{0%,43%,45%,47%,100%{opacity:1}44%,46%{opacity:.55}}.orbit{transform-box:fill-box;transform-origin:center;animation:spin 14s linear infinite}.pulse{animation:pulse 3s ease-in-out infinite}.rise{animation:rise 7s ease-in-out infinite}@keyframes flow{to{stroke-dashoffset:-208}}@keyframes spin{to{transform:rotate(360deg)}}@keyframes pulse{0%,100%{opacity:.45}50%{opacity:1}}@keyframes rise{0%,100%{transform:translateY(0)}50%{transform:translateY(-5px)}}@media(prefers-reduced-motion:reduce){*{animation:none!important}}.rim{stroke-dasharray:90 390;animation:rim 9s linear infinite;filter:url(#glow)}.sweep{animation:sweep 8s ease-in-out infinite;opacity:.18}.halo{transform-box:fill-box;transform-origin:center;animation:halo 4s ease-out infinite}.equalizer{transform-box:fill-box;transform-origin:bottom;animation:eq 1.6s ease-in-out infinite alternate}@keyframes rim{to{stroke-dashoffset:-960}}@keyframes sweep{0%,100%{transform:translateX(-200px);opacity:0}30%,70%{opacity:.18}85%{transform:translateX(1100px);opacity:0}}@keyframes halo{0%{transform:scale(.8);opacity:0}25%{opacity:.4}100%{transform:scale(1.25);opacity:0}}@keyframes eq{from{transform:scaleY(.3)}to{transform:scaleY(1)}}@media(prefers-reduced-motion:reduce){*{animation:none!important}.sweep,.halo{display:none}}.packet{stroke-dasharray:7 93;stroke-dashoffset:7;opacity:0;stroke-linecap:round;animation:packet 12s linear infinite;filter:url(#glow)}.active{animation:active 12s ease-in-out infinite}.scan{animation:scan 6s ease-in-out infinite;transform-box:fill-box;transform-origin:center}@keyframes packet{0%{stroke-dashoffset:7;opacity:0}1%{opacity:1}12.4%{stroke-dashoffset:-100;opacity:1}12.5%,100%{stroke-dashoffset:-100;opacity:0}}@keyframes active{0%,14%,100%{stroke:#29d9ed;fill:#141b29}1%,10%{stroke:#ffe649;fill:#33301b}}@keyframes scan{0%,100%{opacity:.2}50%{opacity:1}}@media(prefers-reduced-motion:reduce){*{animation:none!important}}</style><rect x="1" y="1" width="958" height="402" rx="18" fill="url(#bg)" stroke="#26364e"/><rect width="960" height="404" rx="18" fill="url(#grid)"/><rect x="10" y="10" width="940" height="384" rx="14" fill="none" stroke="#ff168f" stroke-width="2.5" class="tube"/><rect x="13" y="13" width="934" height="378" rx="12" fill="none" stroke="#ff9ad0" stroke-opacity=".5" stroke-width=".7"/><rect class="rim" x="10" y="10" width="940" height="384" rx="14" fill="none" stroke="#ffc0e5" stroke-width="1.4"/><defs><marker id="arrow" viewBox="0 0 10 10" refX="9" refY="5" markerWidth="6" markerHeight="6" orient="auto-start-reverse"><path d="M0 0L10 5L0 10" fill="none" stroke="#85cddd" stroke-width="1.5"/></marker></defs><g transform="translate(32.0 45.0)" aria-label="EXPERIENCE BECOMES CONTEXT"><path d="M14.157 -20.5348H1.7732V0.0H14.5574V-3.6322H5.2052000000000005V-8.9518H13.442V-12.584H5.2052000000000005V-16.9026H14.157ZM25.954 -10.6678 31.101999999999997 -20.5348H27.040799999999997L23.951999999999998 -13.8996L20.948999999999998 -20.5348H16.7734L21.892799999999998 -10.4962L16.458799999999997 0.0H20.577199999999998L23.951999999999998 -7.007L27.1552 0.0H31.4452ZM37.57939999999999 -7.436H41.611999999999995C44.8724 -7.436 46.9888 -10.0958 46.9888 -14.157C46.9888 -18.0466 44.92959999999999 -20.5348 41.754999999999995 -20.5348H34.0616V0.0H37.57939999999999ZM37.57939999999999 -10.9538V-17.017H40.3822C42.584399999999995 -17.017 43.471 -16.1876 43.471 -14.071200000000001C43.471 -11.9548 42.613 -10.9538 40.8398 -10.9538ZM62.58959999999999 -20.5348H50.205799999999996V0.0H62.989999999999995V-3.6322H53.63779999999999V-8.9518H61.874599999999994V-12.584H53.63779999999999V-16.9026H62.58959999999999ZM66.35 0.0H69.782V-8.008000000000001H73.4142C75.788 -7.9508 76.18839999999999 -7.3502 76.15979999999999 -4.1184C76.18839999999999 -2.1736 76.2742 -1.1726 76.5602 0.0H80.4498V-0.5434C79.8492 -0.8294 79.73479999999999 -1.287 79.7062 -3.0888C79.73479999999999 -7.8936 79.44879999999999 -8.8374 77.56119999999999 -9.8384C79.2772 -10.6964 80.1638 -12.326600000000001 80.1638 -14.7004C80.1638 -18.2468 78.076 -20.5348 74.84419999999999 -20.5348H66.35ZM69.782 -11.4972V-17.017H74.18639999999999C75.788 -17.017 76.64599999999999 -16.0446 76.64599999999999 -14.2428C76.64599999999999 -12.3552 75.788 -11.4972 73.92899999999999 -11.4972ZM87.01299999999999 -20.5348H83.4952V0.0H87.01299999999999ZM103.18579999999999 -20.5348H90.80199999999999V0.0H103.58619999999999V-3.6322H94.234V-8.9518H102.4708V-12.584H94.234V-16.9026H103.18579999999999ZM117.24219999999998 -6.1204 110.49259999999998 -20.5348H106.80319999999999V0.0H110.0636V-14.729000000000001L117.01339999999999 0.0H120.50259999999999V-20.5348H117.24219999999998ZM138.6488 -13.8138C138.47719999999998 -15.444 138.2198 -16.302 137.5906 -17.446C136.3036 -19.7912 134.10139999999998 -21.0782 131.4416 -21.0782C126.6368 -21.0782 123.6338 -16.9026 123.6338 -10.2102C123.6338 -3.5464 126.55099999999999 0.5434 131.3558 0.5434C133.5866 0.5434 135.4742 -0.3718 136.7612 -2.1164C137.7336 -3.432 138.19119999999998 -4.6332 138.6488 -7.0356000000000005H135.131C134.87359999999998 -5.8916 134.702 -5.3768 134.3302 -4.7762C133.6438 -3.718 132.6428 -3.1746 131.3844 -3.1746C128.7818 -3.1746 127.2088 -5.8058000000000005 127.2088 -10.1816C127.2088 -14.729000000000001 128.7818 -17.3602 131.5274 -17.3602C132.7 -17.3602 133.701 -16.8454 134.30159999999998 -15.987400000000001C134.6734 -15.386800000000001 134.87359999999998 -14.9292 135.131 -13.8138ZM154.1924 -20.5348H141.80859999999998V0.0H154.59279999999998V-3.6322H145.24059999999997V-8.9518H153.4774V-12.584H145.24059999999997V-16.9026H154.1924ZM164.9736 0.0H172.095C175.0122 0.0 176.2706 -0.429 177.4432 -1.8304C178.4156 -3.003 178.9018 -4.4902 178.9018 -6.1776C178.9018 -7.3216 178.673 -8.3512 178.2726 -9.152000000000001C177.815 -10.0386 177.3574 -10.4962 176.2992 -11.068200000000001C177.7578 -11.9834 178.3584 -13.156 178.3584 -15.1866C178.3584 -18.5042 176.385 -20.5348 173.1532 -20.5348H164.9736ZM168.3484 -9.009H172.8386C174.4402 -9.009 175.38400000000001 -8.0652 175.38400000000001 -6.4350000000000005C175.38400000000001 -4.5474 174.4402 -3.5178000000000003 172.667 -3.5178000000000003H168.3484ZM168.3484 -17.017H172.381C174.18280000000001 -17.017 174.9836 -16.3306 174.9836 -14.8434C174.9836 -13.3276 174.097 -12.4982 172.4668 -12.4982H168.3484ZM194.7886 -20.5348H182.4048V0.0H195.189V-3.6322H185.83679999999998V-8.9518H194.0736V-12.584H185.83679999999998V-16.9026H194.7886ZM212.8204 -13.8138C212.6488 -15.444 212.3914 -16.302 211.7622 -17.446C210.4752 -19.7912 208.273 -21.0782 205.6132 -21.0782C200.8084 -21.0782 197.8054 -16.9026 197.8054 -10.2102C197.8054 -3.5464 200.7226 0.5434 205.5274 0.5434C207.75820000000002 0.5434 209.6458 -0.3718 210.93280000000001 -2.1164C211.9052 -3.432 212.3628 -4.6332 212.8204 -7.0356000000000005H209.3026C209.0452 -5.8916 208.8736 -5.3768 208.5018 -4.7762C207.8154 -3.718 206.8144 -3.1746 205.556 -3.1746C202.95340000000002 -3.1746 201.3804 -5.8058000000000005 201.3804 -10.1816C201.3804 -14.729000000000001 202.95340000000002 -17.3602 205.699 -17.3602C206.8716 -17.3602 207.8726 -16.8454 208.4732 -15.987400000000001C208.845 -15.386800000000001 209.0452 -14.9292 209.3026 -13.8138ZM223.4448 -21.0782C221.09959999999998 -21.0782 218.98319999999998 -20.1058 217.5532 -18.3612C216.0374 -16.5308 215.23659999999998 -13.7566 215.23659999999998 -10.2388C215.23659999999998 -7.6934000000000005 215.66559999999998 -5.5484 216.4664 -3.861C217.8106 -1.1154 220.3846 0.5434 223.3304 0.5434C225.5898 0.5434 227.7062 -0.4576 229.1076 -2.1736C230.6234 -4.0040000000000004 231.42419999999998 -6.7782 231.42419999999998 -10.2674C231.42419999999998 -13.728 230.6234 -16.5308 229.1076 -18.3612C227.7062 -20.0486 225.5898 -21.0782 223.4448 -21.0782ZM223.3876 -17.446C224.503 -17.446 225.6184 -16.9026 226.362 -15.9588C227.363 -14.7576 227.9064 -12.7842 227.9064 -10.3532C227.9064 -5.8058000000000005 226.19039999999998 -3.0888 223.3304 -3.0888C220.47039999999998 -3.0888 218.7544 -5.8058000000000005 218.7544 -10.3246C218.7544 -14.7576 220.499 -17.446 223.3876 -17.446ZM250.886 -20.5348H245.8238L242.7922 -4.2328L239.7034 -20.5348H234.584V0.0H237.8444V-17.4174L240.9618 0.0H244.4224L247.6256 -17.4174V0.0H250.886ZM267.14459999999997 -20.5348H254.7608V0.0H267.54499999999996V-3.6322H258.1928V-8.9518H266.4296V-12.584H258.1928V-16.9026H267.14459999999997ZM270.047 -6.3206C270.1042 -4.6618 270.3044 -3.8324000000000003 270.8192 -2.8028C271.906 -0.6292 274.1082 0.5434 277.054 0.5434C281.3154 0.5434 283.8894 -1.9734 283.8894 -6.1204C283.8894 -9.1806 282.631 -10.7536 279.485 -11.6974L275.3666 -12.927200000000001C274.07959999999997 -13.3276 273.5934 -13.8996 273.5934 -15.0722C273.5934 -16.616600000000002 274.7088 -17.5604 276.5964 -17.5604C278.6842 -17.5604 279.7138 -16.616600000000002 279.9712 -14.443H283.346C283.0886 -18.733 280.7434 -21.0782 276.7108 -21.0782C272.7068 -21.0782 270.3044 -18.6758 270.3044 -14.6432C270.3044 -12.870000000000001 270.7906 -11.4972 271.7344 -10.5534C272.4494 -9.809800000000001 273.5076 -9.3236 275.6526 -8.723L277.4544 -8.2082C279.8282 -7.5218 280.5146 -6.9498 280.5146 -5.6056C280.5146 -3.9182 279.2848 -2.9744 277.1112 -2.9744C274.7374 -2.9744 273.5648 -4.0612 273.4218 -6.3206ZM308.3414 -13.8138C308.1698 -15.444 307.91240000000005 -16.302 307.2832 -17.446C305.99620000000004 -19.7912 303.79400000000004 -21.0782 301.1342 -21.0782C296.3294 -21.0782 293.32640000000004 -16.9026 293.32640000000004 -10.2102C293.32640000000004 -3.5464 296.2436 0.5434 301.0484 0.5434C303.2792 0.5434 305.1668 -0.3718 306.4538 -2.1164C307.4262 -3.432 307.8838 -4.6332 308.3414 -7.0356000000000005H304.8236C304.56620000000004 -5.8916 304.3946 -5.3768 304.0228 -4.7762C303.3364 -3.718 302.3354 -3.1746 301.077 -3.1746C298.4744 -3.1746 296.9014 -5.8058000000000005 296.9014 -10.1816C296.9014 -14.729000000000001 298.4744 -17.3602 301.22 -17.3602C302.3926 -17.3602 303.3936 -16.8454 303.99420000000003 -15.987400000000001C304.36600000000004 -15.386800000000001 304.56620000000004 -14.9292 304.8236 -13.8138ZM318.9658 -21.0782C316.6206 -21.0782 314.5042 -20.1058 313.0742 -18.3612C311.5584 -16.5308 310.7576 -13.7566 310.7576 -10.2388C310.7576 -7.6934000000000005 311.1866 -5.5484 311.98740000000004 -3.861C313.3316 -1.1154 315.9056 0.5434 318.8514 0.5434C321.1108 0.5434 323.2272 -0.4576 324.6286 -2.1736C326.1444 -4.0040000000000004 326.9452 -6.7782 326.9452 -10.2674C326.9452 -13.728 326.1444 -16.5308 324.6286 -18.3612C323.2272 -20.0486 321.1108 -21.0782 318.9658 -21.0782ZM318.90860000000004 -17.446C320.024 -17.446 321.1394 -16.9026 321.883 -15.9588C322.884 -14.7576 323.42740000000003 -12.7842 323.42740000000003 -10.3532C323.42740000000003 -5.8058000000000005 321.7114 -3.0888 318.8514 -3.0888C315.9914 -3.0888 314.2754 -5.8058000000000005 314.2754 -10.3246C314.2754 -14.7576 316.02 -17.446 318.90860000000004 -17.446ZM340.54400000000004 -6.1204 333.7944 -20.5348H330.105V0.0H333.3654V-14.729000000000001L340.3152 0.0H343.80440000000004V-20.5348H340.54400000000004ZM354.8292 -16.9026H359.92V-20.5348H346.2206V-16.9026H351.3114V0.0H354.8292ZM374.8916 -20.5348H362.5078V0.0H375.292V-3.6322H365.9398V-8.9518H374.1766V-12.584H365.9398V-16.9026H374.8916ZM386.6886 -10.6678 391.83660000000003 -20.5348H387.7754L384.6866 -13.8996L381.6836 -20.5348H377.50800000000004L382.6274 -10.4962L377.1934 0.0H381.3118L384.6866 -7.007L387.88980000000004 0.0H392.1798ZM401.94620000000003 -16.9026H407.03700000000003V-20.5348H393.3376V-16.9026H398.4284V0.0H401.94620000000003Z" fill="#f5f3e8"/></g><text x="32" y="73" fill="#b6c5db" font-size="15">An illustrative learning cycle: capture, evaluate, retain and reuse.</text><path d="M258 150H387" fill="none" stroke="#ff45a1" stroke-opacity=".25" stroke-width="2" marker-end="url(#arrow)"/><path class="packet" style="animation-delay:0.0s" d="M258 150H387" pathLength="100" fill="none" stroke="#ff45a1" stroke-width="4"/><path d="M573 150H702" fill="none" stroke="#ff45a1" stroke-opacity=".25" stroke-width="2" marker-end="url(#arrow)"/><path class="packet" style="animation-delay:1.5s" d="M573 150H702" pathLength="100" fill="none" stroke="#ff45a1" stroke-width="4"/><path d="M795 189V267" fill="none" stroke="#ff45a1" stroke-opacity=".25" stroke-width="2" marker-end="url(#arrow)"/><path class="packet" style="animation-delay:3.0s" d="M795 189V267" pathLength="100" fill="none" stroke="#ff45a1" stroke-width="4"/><path d="M702 306H573" fill="none" stroke="#ff45a1" stroke-opacity=".25" stroke-width="2" marker-end="url(#arrow)"/><path class="packet" style="animation-delay:4.5s" d="M702 306H573" pathLength="100" fill="none" stroke="#ff45a1" stroke-width="4"/><path d="M387 306H258" fill="none" stroke="#ff45a1" stroke-opacity=".25" stroke-width="2" marker-end="url(#arrow)"/><path class="packet" style="animation-delay:6.0s" d="M387 306H258" pathLength="100" fill="none" stroke="#ff45a1" stroke-width="4"/><path d="M165 267V189" fill="none" stroke="#ff45a1" stroke-opacity=".25" stroke-width="2" marker-end="url(#arrow)"/><path class="packet" style="animation-delay:7.5s" d="M165 267V189" pathLength="100" fill="none" stroke="#ff45a1" stroke-width="4"/><g><rect class="active" style="animation-delay:0.0s" x="72" y="111" width="186" height="78" rx="12" fill="#141b29" stroke="#29d9ed" stroke-width="1.5"/><path d="M74 125V175" stroke="#ff168f" stroke-width="3"/><text x="85" y="128" fill="#ff80c2" font-size="9" font-family="monospace">01</text><path d="M85 183H245" stroke="#27eaff" stroke-opacity=".15"/><g transform="translate(135.716 147)" aria-label="Recall"><path d="M1.426 0.0H4.186V-6.4399999999999995H7.107C9.016 -6.394 9.338 -5.911 9.315 -3.312C9.338 -1.748 9.407 -0.943 9.637 0.0H12.765V-0.437C12.282 -0.667 12.19 -1.035 12.167 -2.484C12.19 -6.348 11.959999999999999 -7.107 10.442 -7.912C11.822 -8.602 12.535 -9.913 12.535 -11.822C12.535 -14.674 10.856 -16.514 8.257 -16.514H1.426ZM4.186 -9.246V-13.685H7.728C9.016 -13.685 9.706 -12.903 9.706 -11.454C9.706 -9.936 9.016 -9.246 7.521 -9.246ZM21.246 -3.6109999999999998C20.993 -2.737 20.395 -2.277 19.497999999999998 -2.277C18.072 -2.277 17.358999999999998 -3.174 17.198 -5.221H24.075V-5.796C24.075 -10.143 22.372999999999998 -12.558 19.314 -12.558C16.323999999999998 -12.558 14.552999999999999 -10.166 14.552999999999999 -6.164C14.552999999999999 -2.024 16.323999999999998 0.322 19.451999999999998 0.322C20.579 0.322 21.522 0.0 22.281 -0.667C23.131999999999998 -1.38 23.523 -2.093 23.96 -3.6109999999999998ZM17.267 -7.337C17.497 -9.108 18.118 -9.913 19.291 -9.913C20.487 -9.913 21.177 -9.062 21.361 -7.337ZM32.303 -4.462C32.188 -3.174 31.474999999999998 -2.323 30.463 -2.323C29.128999999999998 -2.323 28.462 -3.565 28.462 -6.095C28.462 -8.556 29.198 -9.844 30.624 -9.844C31.567 -9.844 32.073 -9.246 32.326 -7.866H34.994C34.879 -9.084999999999999 34.717999999999996 -9.683 34.327 -10.395999999999999C33.568 -11.776 32.165 -12.558 30.485999999999997 -12.558C27.519 -12.558 25.747999999999998 -10.12 25.747999999999998 -5.957C25.747999999999998 -1.932 27.404 0.322 30.371 0.322C32.97 0.322 34.58 -1.357 34.971 -4.462ZM39.495999999999995 -8.28C39.657 -9.522 40.117 -9.982 41.244 -9.982C42.324999999999996 -9.982 42.876999999999995 -9.522 42.876999999999995 -8.602C42.876999999999995 -8.004 42.601 -7.705 41.957 -7.59L39.588 -7.153C37.702 -6.808 36.644 -5.405 36.644 -3.266C36.644 -1.058 37.839999999999996 0.322 39.772 0.322C41.083 0.322 41.911 -0.138 42.946 -1.449C43.015 -0.782 43.038 -0.598 43.199 0.0H46.028V-0.483C45.614 -0.667 45.453 -1.173 45.453 -2.392V-9.016C45.453 -11.27 43.958 -12.558 41.382 -12.558C39.634 -12.558 38.461 -12.052 37.748 -10.994C37.311 -10.281 37.104 -9.637 36.966 -8.28ZM42.876999999999995 -4.393C42.876999999999995 -3.059 41.842 -1.978 40.554 -1.978C39.772 -1.978 39.289 -2.553 39.289 -3.473C39.289 -4.531 39.748999999999995 -5.014 41.083 -5.29C42.141 -5.497 42.532 -5.635 42.876999999999995 -5.957ZM51.013 -16.514H48.391V0.0H51.013ZM56.757 -16.514H54.135V0.0H56.757Z" fill="#f5f3e8"/></g><text x="165" y="172" text-anchor="middle" fill="#bbcddd" font-size="13">Find related experience</text></g><g><rect class="active" style="animation-delay:1.5s" x="387" y="111" width="186" height="78" rx="12" fill="#141b29" stroke="#29d9ed" stroke-width="1.5"/><path d="M389 125V175" stroke="#ff168f" stroke-width="3"/><text x="400" y="128" fill="#ff80c2" font-size="9" font-family="monospace">02</text><path d="M400 183H560" stroke="#27eaff" stroke-opacity=".15"/><g transform="translate(442.0825 147)" aria-label="Execute"><path d="M11.385 -16.514H1.426V0.0H11.706999999999999V-2.921H4.186V-7.199H10.81V-10.12H4.186V-13.593H11.385ZM19.866 -6.233 23.177999999999997 -12.236H20.073L18.394 -8.671L16.692 -12.236H13.495L16.784 -6.233L13.357 0.0H16.554L18.279 -3.6799999999999997L20.027 0.0H23.293ZM31.198999999999998 -3.6109999999999998C30.945999999999998 -2.737 30.348 -2.277 29.451 -2.277C28.025 -2.277 27.311999999999998 -3.174 27.151 -5.221H34.028V-5.796C34.028 -10.143 32.326 -12.558 29.267 -12.558C26.277 -12.558 24.506 -10.166 24.506 -6.164C24.506 -2.024 26.277 0.322 29.405 0.322C30.532 0.322 31.474999999999998 0.0 32.233999999999995 -0.667C33.085 -1.38 33.476 -2.093 33.913 -3.6109999999999998ZM27.22 -7.337C27.45 -9.108 28.070999999999998 -9.913 29.244 -9.913C30.439999999999998 -9.913 31.13 -9.062 31.314 -7.337ZM42.256 -4.462C42.141000000000005 -3.174 41.428000000000004 -2.323 40.416000000000004 -2.323C39.082 -2.323 38.415 -3.565 38.415 -6.095C38.415 -8.556 39.151 -9.844 40.577 -9.844C41.52 -9.844 42.026 -9.246 42.279 -7.866H44.947C44.832 -9.084999999999999 44.671 -9.683 44.28 -10.395999999999999C43.521 -11.776 42.118 -12.558 40.439 -12.558C37.472 -12.558 35.701 -10.12 35.701 -5.957C35.701 -1.932 37.357 0.322 40.324000000000005 0.322C42.923 0.322 44.533 -1.357 44.924 -4.462ZM56.326 -12.236H53.704V-5.175C53.704 -3.4499999999999997 52.922000000000004 -2.392 51.611000000000004 -2.392C50.484 -2.392 49.909 -3.151 49.909 -4.646V-12.236H47.287V-4.186C47.287 -1.311 48.506 0.322 50.668 0.322C52.14 0.322 53.106 -0.345 53.796 -1.794V0.0H56.326ZM62.230999999999995 -15.548H59.608999999999995V-12.236H58.251999999999995V-9.936H59.608999999999995V-2.507C59.608999999999995 -0.575 60.275999999999996 0.092 62.277 0.138H62.622C62.943999999999996 0.138 63.105 0.138 63.634 0.11499999999999999L63.887 0.092V-2.346C63.519 -2.3 63.495999999999995 -2.3 63.312 -2.3C62.391999999999996 -2.3 62.230999999999995 -2.438 62.230999999999995 -3.289V-9.936H63.887V-12.236H62.230999999999995ZM71.97699999999999 -3.6109999999999998C71.72399999999999 -2.737 71.12599999999999 -2.277 70.229 -2.277C68.803 -2.277 68.08999999999999 -3.174 67.92899999999999 -5.221H74.806V-5.796C74.806 -10.143 73.104 -12.558 70.04499999999999 -12.558C67.05499999999999 -12.558 65.28399999999999 -10.166 65.28399999999999 -6.164C65.28399999999999 -2.024 67.05499999999999 0.322 70.18299999999999 0.322C71.30999999999999 0.322 72.253 0.0 73.012 -0.667C73.863 -1.38 74.25399999999999 -2.093 74.69099999999999 -3.6109999999999998ZM67.99799999999999 -7.337C68.228 -9.108 68.84899999999999 -9.913 70.02199999999999 -9.913C71.21799999999999 -9.913 71.90799999999999 -9.062 72.092 -7.337Z" fill="#f5f3e8"/></g><text x="480" y="172" text-anchor="middle" fill="#bbcddd" font-size="13">Tools + agent actions</text></g><g><rect class="active" style="animation-delay:3.0s" x="702" y="111" width="186" height="78" rx="12" fill="#141b29" stroke="#29d9ed" stroke-width="1.5"/><path d="M704 125V175" stroke="#ff168f" stroke-width="3"/><text x="715" y="128" fill="#ff80c2" font-size="9" font-family="monospace">03</text><path d="M715 183H875" stroke="#27eaff" stroke-opacity=".15"/><g transform="translate(754.2105 147)" aria-label="Evaluate"><path d="M11.385 -16.514H1.426V0.0H11.706999999999999V-2.921H4.186V-7.199H10.81V-10.12H4.186V-13.593H11.385ZM23.316 -12.236H20.509999999999998L18.371 -3.128L16.278 -12.236H13.334L16.922 0.0H19.705ZM27.473 -8.28C27.634 -9.522 28.094 -9.982 29.221 -9.982C30.302 -9.982 30.854 -9.522 30.854 -8.602C30.854 -8.004 30.578 -7.705 29.933999999999997 -7.59L27.564999999999998 -7.153C25.679 -6.808 24.621 -5.405 24.621 -3.266C24.621 -1.058 25.817 0.322 27.749 0.322C29.06 0.322 29.887999999999998 -0.138 30.923 -1.449C30.991999999999997 -0.782 31.015 -0.598 31.176 0.0H34.004999999999995V-0.483C33.591 -0.667 33.43 -1.173 33.43 -2.392V-9.016C33.43 -11.27 31.935 -12.558 29.358999999999998 -12.558C27.610999999999997 -12.558 26.438 -12.052 25.724999999999998 -10.994C25.288 -10.281 25.081 -9.637 24.942999999999998 -8.28ZM30.854 -4.393C30.854 -3.059 29.819 -1.978 28.531 -1.978C27.749 -1.978 27.266 -2.553 27.266 -3.473C27.266 -4.531 27.726 -5.014 29.06 -5.29C30.118 -5.497 30.509 -5.635 30.854 -5.957ZM38.99 -16.514H36.368V0.0H38.99ZM51.082 -12.236H48.46V-5.175C48.46 -3.4499999999999997 47.678000000000004 -2.392 46.367000000000004 -2.392C45.24 -2.392 44.665 -3.151 44.665 -4.646V-12.236H42.043V-4.186C42.043 -1.311 43.262 0.322 45.424 0.322C46.896 0.322 47.862 -0.345 48.552 -1.794V0.0H51.082ZM56.227999999999994 -8.28C56.388999999999996 -9.522 56.849 -9.982 57.976 -9.982C59.056999999999995 -9.982 59.608999999999995 -9.522 59.608999999999995 -8.602C59.608999999999995 -8.004 59.333 -7.705 58.689 -7.59L56.32 -7.153C54.434 -6.808 53.376 -5.405 53.376 -3.266C53.376 -1.058 54.571999999999996 0.322 56.504 0.322C57.815 0.322 58.643 -0.138 59.678 -1.449C59.747 -0.782 59.769999999999996 -0.598 59.931 0.0H62.76V-0.483C62.346 -0.667 62.185 -1.173 62.185 -2.392V-9.016C62.185 -11.27 60.69 -12.558 58.114 -12.558C56.366 -12.558 55.193 -12.052 54.48 -10.994C54.043 -10.281 53.836 -9.637 53.698 -8.28ZM59.608999999999995 -4.393C59.608999999999995 -3.059 58.574 -1.978 57.286 -1.978C56.504 -1.978 56.021 -2.553 56.021 -3.473C56.021 -4.531 56.480999999999995 -5.014 57.815 -5.29C58.873 -5.497 59.263999999999996 -5.635 59.608999999999995 -5.957ZM67.975 -15.548H65.353V-12.236H63.995999999999995V-9.936H65.353V-2.507C65.353 -0.575 66.02 0.092 68.021 0.138H68.366C68.688 0.138 68.849 0.138 69.378 0.11499999999999999L69.631 0.092V-2.346C69.26299999999999 -2.3 69.24 -2.3 69.056 -2.3C68.136 -2.3 67.975 -2.438 67.975 -3.289V-9.936H69.631V-12.236H67.975ZM77.72099999999999 -3.6109999999999998C77.46799999999999 -2.737 76.86999999999999 -2.277 75.973 -2.277C74.547 -2.277 73.83399999999999 -3.174 73.67299999999999 -5.221H80.55V-5.796C80.55 -10.143 78.848 -12.558 75.78899999999999 -12.558C72.79899999999999 -12.558 71.02799999999999 -10.166 71.02799999999999 -6.164C71.02799999999999 -2.024 72.79899999999999 0.322 75.92699999999999 0.322C77.05399999999999 0.322 77.997 0.0 78.756 -0.667C79.607 -1.38 79.99799999999999 -2.093 80.43499999999999 -3.6109999999999998ZM73.74199999999999 -7.337C73.972 -9.108 74.59299999999999 -9.913 75.76599999999999 -9.913C76.96199999999999 -9.913 77.65199999999999 -9.062 77.836 -7.337Z" fill="#f5f3e8"/></g><text x="795" y="172" text-anchor="middle" fill="#bbcddd" font-size="13">Tests + task feedback</text></g><g><rect class="active" style="animation-delay:4.5s" x="702" y="267" width="186" height="78" rx="12" fill="#141b29" stroke="#29d9ed" stroke-width="1.5"/><path d="M704 281V331" stroke="#ff168f" stroke-width="3"/><text x="715" y="284" fill="#ff80c2" font-size="9" font-family="monospace">04</text><path d="M715 339H875" stroke="#27eaff" stroke-opacity=".15"/><g transform="translate(769.646 303)" aria-label="Store"><path d="M0.736 -5.083C0.782 -3.749 0.943 -3.082 1.357 -2.254C2.231 -0.506 4.002 0.437 6.3709999999999996 0.437C9.798 0.437 11.868 -1.587 11.868 -4.922C11.868 -7.383 10.856 -8.648 8.326 -9.407L5.014 -10.395999999999999C3.979 -10.718 3.588 -11.177999999999999 3.588 -12.121C3.588 -13.363 4.485 -14.122 6.003 -14.122C7.6819999999999995 -14.122 8.51 -13.363 8.717 -11.615H11.431C11.224 -15.065 9.338 -16.951 6.095 -16.951C2.875 -16.951 0.943 -15.019 0.943 -11.776C0.943 -10.35 1.334 -9.246 2.093 -8.487C2.668 -7.889 3.519 -7.498 5.244 -7.015L6.693 -6.601C8.602 -6.0489999999999995 9.154 -5.5889999999999995 9.154 -4.508C9.154 -3.151 8.165 -2.392 6.417 -2.392C4.508 -2.392 3.565 -3.266 3.4499999999999997 -5.083ZM17.244 -15.548H14.622V-12.236H13.264999999999999V-9.936H14.622V-2.507C14.622 -0.575 15.289 0.092 17.29 0.138H17.634999999999998C17.957 0.138 18.118 0.138 18.647 0.11499999999999999L18.9 0.092V-2.346C18.532 -2.3 18.509 -2.3 18.325 -2.3C17.405 -2.3 17.244 -2.438 17.244 -3.289V-9.936H18.9V-12.236H17.244ZM25.701999999999998 -12.558C22.505 -12.558 20.503999999999998 -10.074 20.503999999999998 -6.095C20.503999999999998 -2.208 22.528 0.322 25.633 0.322C28.738 0.322 30.762 -2.208 30.762 -6.095C30.762 -10.004999999999999 28.761 -12.558 25.701999999999998 -12.558ZM25.656 -9.844C27.197 -9.844 28.048000000000002 -8.51 28.048000000000002 -6.118C28.048000000000002 -3.703 27.197 -2.392 25.633 -2.392C24.069 -2.392 23.218 -3.703 23.218 -6.118C23.218 -8.556 24.069 -9.844 25.656 -9.844ZM33.079 0.0H35.701V-6.3709999999999996C35.701 -8.349 36.506 -9.292 38.254 -9.292C38.553 -9.292 38.691 -9.292 38.921 -9.246V-12.512L38.806 -12.535C38.53 -12.558 38.53 -12.558 38.391999999999996 -12.558C37.104 -12.558 36.391 -11.914 35.609 -10.051V-12.236H33.079ZM46.85 -3.6109999999999998C46.597 -2.737 45.998999999999995 -2.277 45.102 -2.277C43.676 -2.277 42.963 -3.174 42.802 -5.221H49.679V-5.796C49.679 -10.143 47.977 -12.558 44.918 -12.558C41.928 -12.558 40.157 -10.166 40.157 -6.164C40.157 -2.024 41.928 0.322 45.056 0.322C46.183 0.322 47.126 0.0 47.885 -0.667C48.736 -1.38 49.126999999999995 -2.093 49.564 -3.6109999999999998ZM42.870999999999995 -7.337C43.101 -9.108 43.722 -9.913 44.894999999999996 -9.913C46.091 -9.913 46.781 -9.062 46.964999999999996 -7.337Z" fill="#f5f3e8"/></g><text x="795" y="328" text-anchor="middle" fill="#bbcddd" font-size="13">Keep useful trajectories</text></g><g><rect class="active" style="animation-delay:6.0s" x="387" y="267" width="186" height="78" rx="12" fill="#141b29" stroke="#29d9ed" stroke-width="1.5"/><path d="M389 281V331" stroke="#ff168f" stroke-width="3"/><text x="400" y="284" fill="#ff80c2" font-size="9" font-family="monospace">05</text><path d="M400 339H560" stroke="#27eaff" stroke-opacity=".15"/><g transform="translate(452.0355 303)" aria-label="Adapt"><path d="M4.301 -3.404H9.292L10.166 0.0H13.248L8.464 -16.514H5.1979999999999995L0.368 0.0H3.358ZM6.808 -12.857 8.51 -6.233H5.06ZM24.512 -16.514H21.89V-10.58C21.085 -12.006 20.256999999999998 -12.558 18.969 -12.558C16.416 -12.558 14.76 -10.051 14.76 -6.256C14.76 -2.231 16.416 0.322 18.992 0.322C20.372 0.322 21.292 -0.276 21.936 -1.6099999999999999V0.0H24.512ZM19.774 -9.752C21.177 -9.752 21.982 -8.395 21.982 -6.003C21.982 -3.657 21.154 -2.323 19.682 -2.323C18.325 -2.323 17.474 -3.772 17.474 -6.072C17.474 -8.418 18.302 -9.752 19.774 -9.752ZM29.543 -8.28C29.704 -9.522 30.164 -9.982 31.291 -9.982C32.372 -9.982 32.924 -9.522 32.924 -8.602C32.924 -8.004 32.647999999999996 -7.705 32.004 -7.59L29.634999999999998 -7.153C27.749 -6.808 26.691 -5.405 26.691 -3.266C26.691 -1.058 27.887 0.322 29.819 0.322C31.13 0.322 31.958 -0.138 32.993 -1.449C33.062 -0.782 33.085 -0.598 33.246 0.0H36.075V-0.483C35.661 -0.667 35.5 -1.173 35.5 -2.392V-9.016C35.5 -11.27 34.004999999999995 -12.558 31.429 -12.558C29.680999999999997 -12.558 28.508 -12.052 27.794999999999998 -10.994C27.358 -10.281 27.151 -9.637 27.012999999999998 -8.28ZM32.924 -4.393C32.924 -3.059 31.889 -1.978 30.601 -1.978C29.819 -1.978 29.336 -2.553 29.336 -3.473C29.336 -4.531 29.796 -5.014 31.13 -5.29C32.188 -5.497 32.579 -5.635 32.924 -5.957ZM40.83 -12.236H38.3V4.761H40.922V-1.633C41.611999999999995 -0.22999999999999998 42.416999999999994 0.322 43.773999999999994 0.322C46.373 0.322 48.028999999999996 -2.231 48.028999999999996 -6.256C48.028999999999996 -10.074 46.349999999999994 -12.558 43.797 -12.558C42.44 -12.558 41.589 -11.937 40.83 -10.395999999999999ZM43.06099999999999 -9.752C44.464 -9.752 45.315 -8.372 45.315 -6.095C45.315 -3.772 44.464 -2.323 43.10699999999999 -2.323C41.635 -2.323 40.83 -3.6109999999999998 40.83 -5.9799999999999995C40.83 -8.487 41.589 -9.752 43.06099999999999 -9.752ZM53.31299999999999 -15.548H50.69099999999999V-12.236H49.33399999999999V-9.936H50.69099999999999V-2.507C50.69099999999999 -0.575 51.35799999999999 0.092 53.358999999999995 0.138H53.70399999999999C54.02599999999999 0.138 54.18699999999999 0.138 54.715999999999994 0.11499999999999999L54.968999999999994 0.092V-2.346C54.60099999999999 -2.3 54.57799999999999 -2.3 54.39399999999999 -2.3C53.47399999999999 -2.3 53.31299999999999 -2.438 53.31299999999999 -3.289V-9.936H54.968999999999994V-12.236H53.31299999999999Z" fill="#f5f3e8"/></g><text x="480" y="328" text-anchor="middle" fill="#bbcddd" font-size="13">Update reusable patterns</text></g><g><rect class="active" style="animation-delay:7.5s" x="72" y="267" width="186" height="78" rx="12" fill="#141b29" stroke="#29d9ed" stroke-width="1.5"/><path d="M74 281V331" stroke="#ff168f" stroke-width="3"/><text x="85" y="284" fill="#ff80c2" font-size="9" font-family="monospace">06</text><path d="M85 339H245" stroke="#27eaff" stroke-opacity=".15"/><g transform="translate(135.4485 303)" aria-label="Reuse"><path d="M1.426 0.0H4.186V-6.4399999999999995H7.107C9.016 -6.394 9.338 -5.911 9.315 -3.312C9.338 -1.748 9.407 -0.943 9.637 0.0H12.765V-0.437C12.282 -0.667 12.19 -1.035 12.167 -2.484C12.19 -6.348 11.959999999999999 -7.107 10.442 -7.912C11.822 -8.602 12.535 -9.913 12.535 -11.822C12.535 -14.674 10.856 -16.514 8.257 -16.514H1.426ZM4.186 -9.246V-13.685H7.728C9.016 -13.685 9.706 -12.903 9.706 -11.454C9.706 -9.936 9.016 -9.246 7.521 -9.246ZM21.246 -3.6109999999999998C20.993 -2.737 20.395 -2.277 19.497999999999998 -2.277C18.072 -2.277 17.358999999999998 -3.174 17.198 -5.221H24.075V-5.796C24.075 -10.143 22.372999999999998 -12.558 19.314 -12.558C16.323999999999998 -12.558 14.552999999999999 -10.166 14.552999999999999 -6.164C14.552999999999999 -2.024 16.323999999999998 0.322 19.451999999999998 0.322C20.579 0.322 21.522 0.0 22.281 -0.667C23.131999999999998 -1.38 23.523 -2.093 23.96 -3.6109999999999998ZM17.267 -7.337C17.497 -9.108 18.118 -9.913 19.291 -9.913C20.487 -9.913 21.177 -9.062 21.361 -7.337ZM35.385 -12.236H32.763V-5.175C32.763 -3.4499999999999997 31.980999999999998 -2.392 30.669999999999998 -2.392C29.543 -2.392 28.968 -3.151 28.968 -4.646V-12.236H26.346V-4.186C26.346 -1.311 27.564999999999998 0.322 29.727 0.322C31.198999999999998 0.322 32.165 -0.345 32.855 -1.794V0.0H35.385ZM46.626 -8.51C46.419 -10.212 46.074 -10.994 45.245999999999995 -11.661C44.532999999999994 -12.236 43.474999999999994 -12.558 42.233 -12.558C40.553999999999995 -12.558 39.358 -11.983 38.66799999999999 -10.81C38.276999999999994 -10.143 38.06999999999999 -9.338 38.06999999999999 -8.487C38.06999999999999 -6.4399999999999995 39.312 -5.29 42.095 -4.761C43.589999999999996 -4.462 44.279999999999994 -4.048 44.279999999999994 -3.404C44.279999999999994 -2.622 43.61299999999999 -2.139 42.55499999999999 -2.139C41.129 -2.139 40.461999999999996 -2.691 40.416 -3.91H37.702C37.86299999999999 -2.231 38.184999999999995 -1.472 39.059 -0.736C39.88699999999999 -0.069 41.105999999999995 0.322 42.462999999999994 0.322C45.245999999999995 0.322 46.925 -1.242 46.925 -3.818C46.925 -4.531 46.763999999999996 -5.175 46.464999999999996 -5.681C45.958999999999996 -6.532 44.556 -7.268 42.80799999999999 -7.6129999999999995C41.28999999999999 -7.889 40.645999999999994 -8.302999999999999 40.645999999999994 -8.947C40.645999999999994 -9.706 41.19799999999999 -10.097 42.233 -10.097C43.40599999999999 -10.097 43.842999999999996 -9.706 44.026999999999994 -8.51ZM55.245 -3.6109999999999998C54.992 -2.737 54.39399999999999 -2.277 53.49699999999999 -2.277C52.071 -2.277 51.358 -3.174 51.196999999999996 -5.221H58.074V-5.796C58.074 -10.143 56.37199999999999 -12.558 53.312999999999995 -12.558C50.32299999999999 -12.558 48.55199999999999 -10.166 48.55199999999999 -6.164C48.55199999999999 -2.024 50.32299999999999 0.322 53.45099999999999 0.322C54.577999999999996 0.322 55.520999999999994 0.0 56.279999999999994 -0.667C57.13099999999999 -1.38 57.52199999999999 -2.093 57.958999999999996 -3.6109999999999998ZM51.26599999999999 -7.337C51.495999999999995 -9.108 52.117 -9.913 53.28999999999999 -9.913C54.486 -9.913 55.175999999999995 -9.062 55.35999999999999 -7.337Z" fill="#f5f3e8"/></g><text x="165" y="328" text-anchor="middle" fill="#bbcddd" font-size="13">Inform the next task</text></g><path class="flow" d="M322 228H638" stroke="#ffe32e" stroke-width="2"/><text x="480" y="217" text-anchor="middle" fill="#ffe64c" font-size="14">RECALL → ACTION → FEEDBACK</text><text x="32" y="379" fill="#8ea8bf" font-size="13">Learning quality depends on feedback and configuration; improvement is not guaranteed.</text></svg>