<svg xmlns="http://www.w3.org/2000/svg" viewBox="0 0 1024 1024" width="1024" height="1024" role="img" aria-label="Maps">
  <defs>
    <linearGradient id="bg-maps" x1="0" y1="0" x2="1" y2="1">
      <stop offset="0" stop-color="#281d15"/>
      <stop offset="1" stop-color="#19140b"/>
    </linearGradient>
    <radialGradient id="blobA-maps" cx="0.5" cy="0.5" r="0.5">
      <stop offset="0" stop-color="#da732f" stop-opacity="0.55"/>
      <stop offset="1" stop-color="#da732f" stop-opacity="0"/>
    </radialGradient>
    <radialGradient id="blobB-maps" cx="0.5" cy="0.5" r="0.5">
      <stop offset="0" stop-color="#c3ae28" stop-opacity="0.5"/>
      <stop offset="1" stop-color="#c3ae28" stop-opacity="0"/>
    </radialGradient>
    <radialGradient id="vig-maps" cx="0.5" cy="0.42" r="0.75">
      <stop offset="0" stop-color="#000000" stop-opacity="0"/>
      <stop offset="0.72" stop-color="#000000" stop-opacity="0"/>
      <stop offset="1" stop-color="#000000" stop-opacity="0.5"/>
    </radialGradient>
    <linearGradient id="label-maps" x1="0" y1="0" x2="0" y2="1">
      <stop offset="0" stop-color="#000000" stop-opacity="0"/>
      <stop offset="1" stop-color="#000000" stop-opacity="0.55"/>
    </linearGradient>
    <filter id="soft-maps" x="-30%" y="-30%" width="160%" height="160%">
      <feGaussianBlur stdDeviation="46"/>
    </filter>
    <filter id="iglow-maps" x="-40%" y="-40%" width="180%" height="180%">
      <feDropShadow dx="0" dy="0" stdDeviation="14" flood-color="#ed8845" flood-opacity="0.45"/>
    </filter>
  </defs>

  <rect width="1024" height="1024" fill="url(#bg-maps)"/>

  <g opacity="0.9">
    <circle cx="232" cy="220" r="300" fill="url(#blobA-maps)" filter="url(#soft-maps)"/>
    <circle cx="840" cy="800" r="340" fill="url(#blobB-maps)" filter="url(#soft-maps)"/>
  </g>

  <g stroke="#eadfd7" stroke-width="1.4" opacity="0.06">
    <line x1="0" y1="256" x2="1024" y2="256"/>
    <line x1="0" y1="512" x2="1024" y2="512"/>
    <line x1="0" y1="768" x2="1024" y2="768"/>
    <line x1="256" y1="0" x2="256" y2="1024"/>
    <line x1="512" y1="0" x2="512" y2="1024"/>
    <line x1="768" y1="0" x2="768" y2="1024"/>
  </g>

  <g opacity="0.5">
    <path d="M120 470 A 400 400 0 0 1 904 470" fill="none" stroke="#ed8845" stroke-width="3" opacity="0.35"/>
  </g>

  <g transform="translate(512 432)" filter="url(#iglow-maps)"
     color="#eadfd7" stroke="#eadfd7" stroke-width="20"
     stroke-linecap="round" stroke-linejoin="round" fill="none">
    <line x1="-110" y1="-96" x2="0" y2="0"/>
    <line x1="120" y1="-110" x2="0" y2="0"/>
    <line x1="-130" y1="86" x2="0" y2="0"/>
    <line x1="110" y1="104" x2="0" y2="0"/>
    <circle cx="0" cy="0" r="30" fill="currentColor" stroke-width="0"/>
    <circle cx="0" cy="0" r="30"/>
    <circle cx="-110" cy="-96" r="22"/>
    <circle cx="120" cy="-110" r="22"/>
    <circle cx="-130" cy="86" r="22"/>
    <circle cx="110" cy="104" r="22"/>
  </g>

  <rect x="0" y="784" width="1024" height="240" fill="url(#label-maps)"/>
  <text x="512" y="892" text-anchor="middle"
        font-family="system-ui, -apple-system, Segoe UI, Roboto, sans-serif"
        font-size="76" font-weight="600" letter-spacing="0.5"
        fill="#eadfd7">Maps</text>
  <rect x="460" y="924" width="104" height="6" rx="3" fill="#ed8845"/>

  <rect width="1024" height="1024" fill="url(#vig-maps)"/>
</svg>